<mxfile host="Electron" agent="Mozilla/5.0 (Windows NT 10.0; Win64; x64) AppleWebKit/537.36 (KHTML, like Gecko) draw.io/27.0.5 Chrome/134.0.6998.205 Electron/35.3.0 Safari/537.36" version="27.0.5">
  <diagram name="Page-1" id="UQfQ47-jhMwPksH4_KgC">
    <mxGraphModel dx="914" dy="732" grid="1" gridSize="10" guides="1" tooltips="1" connect="1" arrows="1" fold="1" page="1" pageScale="1" pageWidth="850" pageHeight="1100" math="0" shadow="0">
      <root>
        <mxCell id="0" />
        <mxCell id="1" parent="0" />
        <mxCell id="twu74jtmgmy1X8iGH-nL-76" style="edgeStyle=orthogonalEdgeStyle;rounded=0;orthogonalLoop=1;jettySize=auto;html=1;endArrow=none;startFill=1;startArrow=diamondThin;" parent="1" source="twu74jtmgmy1X8iGH-nL-1" target="twu74jtmgmy1X8iGH-nL-46" edge="1">
          <mxGeometry relative="1" as="geometry">
            <Array as="points">
              <mxPoint x="680" y="520" />
            </Array>
          </mxGeometry>
        </mxCell>
        <mxCell id="twu74jtmgmy1X8iGH-nL-1" value="BEUsuario_391IAU" style="swimlane;fontStyle=1;align=center;verticalAlign=top;childLayout=stackLayout;horizontal=1;startSize=29.473684210526315;horizontalStack=0;resizeParent=1;resizeParentMax=0;resizeLast=0;collapsible=0;marginBottom=0;" parent="1" vertex="1">
          <mxGeometry x="380" y="274" width="116" height="276.4736842105263" as="geometry" />
        </mxCell>
        <mxCell id="twu74jtmgmy1X8iGH-nL-2" value="- Apellido: string" style="text;strokeColor=none;fillColor=none;align=left;verticalAlign=top;spacingLeft=4;spacingRight=4;overflow=hidden;rotatable=0;points=[[0,0.5],[1,0.5]];portConstraint=eastwest;" parent="twu74jtmgmy1X8iGH-nL-1" vertex="1">
          <mxGeometry y="29.473684210526315" width="116" height="29" as="geometry" />
        </mxCell>
        <mxCell id="twu74jtmgmy1X8iGH-nL-3" value="- ContraseÃ±a: string" style="text;strokeColor=none;fillColor=none;align=left;verticalAlign=top;spacingLeft=4;spacingRight=4;overflow=hidden;rotatable=0;points=[[0,0.5],[1,0.5]];portConstraint=eastwest;" parent="twu74jtmgmy1X8iGH-nL-1" vertex="1">
          <mxGeometry y="58.473684210526315" width="116" height="29" as="geometry" />
        </mxCell>
        <mxCell id="twu74jtmgmy1X8iGH-nL-4" value="- DNI: int" style="text;strokeColor=none;fillColor=none;align=left;verticalAlign=top;spacingLeft=4;spacingRight=4;overflow=hidden;rotatable=0;points=[[0,0.5],[1,0.5]];portConstraint=eastwest;" parent="twu74jtmgmy1X8iGH-nL-1" vertex="1">
          <mxGeometry y="87.47368421052632" width="116" height="29" as="geometry" />
        </mxCell>
        <mxCell id="twu74jtmgmy1X8iGH-nL-5" value="- e-Mail: string" style="text;strokeColor=none;fillColor=none;align=left;verticalAlign=top;spacingLeft=4;spacingRight=4;overflow=hidden;rotatable=0;points=[[0,0.5],[1,0.5]];portConstraint=eastwest;" parent="twu74jtmgmy1X8iGH-nL-1" vertex="1">
          <mxGeometry y="116.47368421052632" width="116" height="29" as="geometry" />
        </mxCell>
        <mxCell id="twu74jtmgmy1X8iGH-nL-6" value="- Estado: bool" style="text;strokeColor=none;fillColor=none;align=left;verticalAlign=top;spacingLeft=4;spacingRight=4;overflow=hidden;rotatable=0;points=[[0,0.5],[1,0.5]];portConstraint=eastwest;" parent="twu74jtmgmy1X8iGH-nL-1" vertex="1">
          <mxGeometry y="145.4736842105263" width="116" height="29" as="geometry" />
        </mxCell>
        <mxCell id="twu74jtmgmy1X8iGH-nL-7" value="- Nombre: string" style="text;strokeColor=none;fillColor=none;align=left;verticalAlign=top;spacingLeft=4;spacingRight=4;overflow=hidden;rotatable=0;points=[[0,0.5],[1,0.5]];portConstraint=eastwest;" parent="twu74jtmgmy1X8iGH-nL-1" vertex="1">
          <mxGeometry y="174.4736842105263" width="116" height="29" as="geometry" />
        </mxCell>
        <mxCell id="twu74jtmgmy1X8iGH-nL-8" value="- Permisos: list" style="text;strokeColor=none;fillColor=none;align=left;verticalAlign=top;spacingLeft=4;spacingRight=4;overflow=hidden;rotatable=0;points=[[0,0.5],[1,0.5]];portConstraint=eastwest;" parent="twu74jtmgmy1X8iGH-nL-1" vertex="1">
          <mxGeometry y="203.4736842105263" width="116" height="29" as="geometry" />
        </mxCell>
        <mxCell id="twu74jtmgmy1X8iGH-nL-9" value="- Rol: Rol_391IAU" style="text;strokeColor=none;fillColor=none;align=left;verticalAlign=top;spacingLeft=4;spacingRight=4;overflow=hidden;rotatable=0;points=[[0,0.5],[1,0.5]];portConstraint=eastwest;" parent="twu74jtmgmy1X8iGH-nL-1" vertex="1">
          <mxGeometry y="232.4736842105263" width="116" height="29" as="geometry" />
        </mxCell>
        <mxCell id="twu74jtmgmy1X8iGH-nL-10" style="line;strokeWidth=1;fillColor=none;align=left;verticalAlign=middle;spacingTop=-1;spacingLeft=3;spacingRight=3;rotatable=0;labelPosition=right;points=[];portConstraint=eastwest;strokeColor=inherit;" parent="twu74jtmgmy1X8iGH-nL-1" vertex="1">
          <mxGeometry y="261.4736842105263" width="116" height="15" as="geometry" />
        </mxCell>
        <mxCell id="twu74jtmgmy1X8iGH-nL-67" style="edgeStyle=orthogonalEdgeStyle;rounded=0;orthogonalLoop=1;jettySize=auto;html=1;endArrow=open;endFill=0;dashed=1;" parent="1" source="twu74jtmgmy1X8iGH-nL-11" target="twu74jtmgmy1X8iGH-nL-18" edge="1">
          <mxGeometry relative="1" as="geometry">
            <Array as="points">
              <mxPoint x="600" y="80" />
              <mxPoint x="600" y="80" />
            </Array>
          </mxGeometry>
        </mxCell>
        <mxCell id="twu74jtmgmy1X8iGH-nL-69" style="edgeStyle=orthogonalEdgeStyle;rounded=0;orthogonalLoop=1;jettySize=auto;html=1;dashed=1;endArrow=open;endFill=0;" parent="1" source="twu74jtmgmy1X8iGH-nL-11" target="twu74jtmgmy1X8iGH-nL-15" edge="1">
          <mxGeometry relative="1" as="geometry">
            <Array as="points">
              <mxPoint x="600" y="180" />
              <mxPoint x="600" y="180" />
            </Array>
          </mxGeometry>
        </mxCell>
        <mxCell id="twu74jtmgmy1X8iGH-nL-70" style="edgeStyle=orthogonalEdgeStyle;rounded=0;orthogonalLoop=1;jettySize=auto;html=1;dashed=1;endArrow=open;endFill=0;" parent="1" source="twu74jtmgmy1X8iGH-nL-11" target="twu74jtmgmy1X8iGH-nL-1" edge="1">
          <mxGeometry relative="1" as="geometry">
            <Array as="points">
              <mxPoint x="460" y="240" />
              <mxPoint x="460" y="240" />
            </Array>
          </mxGeometry>
        </mxCell>
        <mxCell id="twu74jtmgmy1X8iGH-nL-71" style="edgeStyle=orthogonalEdgeStyle;rounded=0;orthogonalLoop=1;jettySize=auto;html=1;dashed=1;endArrow=open;endFill=0;" parent="1" source="twu74jtmgmy1X8iGH-nL-11" target="twu74jtmgmy1X8iGH-nL-50" edge="1">
          <mxGeometry relative="1" as="geometry">
            <Array as="points">
              <mxPoint x="540" y="240" />
              <mxPoint x="540" y="240" />
            </Array>
          </mxGeometry>
        </mxCell>
        <mxCell id="twu74jtmgmy1X8iGH-nL-11" value="BLLUsuario_391IAU" style="swimlane;fontStyle=1;align=center;verticalAlign=top;childLayout=stackLayout;horizontal=1;startSize=40.57142857142857;horizontalStack=0;resizeParent=1;resizeParentMax=0;resizeLast=0;collapsible=0;marginBottom=0;" parent="1" vertex="1">
          <mxGeometry x="315" y="63.55" width="246" height="130.57142857142856" as="geometry" />
        </mxCell>
        <mxCell id="twu74jtmgmy1X8iGH-nL-12" style="line;strokeWidth=1;fillColor=none;align=left;verticalAlign=middle;spacingTop=-1;spacingLeft=3;spacingRight=3;rotatable=0;labelPosition=right;points=[];portConstraint=eastwest;strokeColor=inherit;" parent="twu74jtmgmy1X8iGH-nL-11" vertex="1">
          <mxGeometry y="40.57142857142857" width="246" height="8" as="geometry" />
        </mxCell>
        <mxCell id="twu74jtmgmy1X8iGH-nL-13" value="+ ObtenerUsuario(int) : : BEUsuario_391IAU" style="text;strokeColor=none;fillColor=none;align=left;verticalAlign=top;spacingLeft=4;spacingRight=4;overflow=hidden;rotatable=0;points=[[0,0.5],[1,0.5]];portConstraint=eastwest;" parent="twu74jtmgmy1X8iGH-nL-11" vertex="1">
          <mxGeometry y="48.57142857142857" width="246" height="41" as="geometry" />
        </mxCell>
        <mxCell id="twu74jtmgmy1X8iGH-nL-14" value="+ VerificarCredenciales(int, string) : : bool" style="text;strokeColor=none;fillColor=none;align=left;verticalAlign=top;spacingLeft=4;spacingRight=4;overflow=hidden;rotatable=0;points=[[0,0.5],[1,0.5]];portConstraint=eastwest;" parent="twu74jtmgmy1X8iGH-nL-11" vertex="1">
          <mxGeometry y="89.57142857142857" width="246" height="41" as="geometry" />
        </mxCell>
        <mxCell id="twu74jtmgmy1X8iGH-nL-15" value="DAL_391IAU" style="swimlane;fontStyle=1;align=center;verticalAlign=top;childLayout=stackLayout;horizontal=1;startSize=47.2;horizontalStack=0;resizeParent=1;resizeParentMax=0;resizeLast=0;collapsible=0;marginBottom=0;" parent="1" vertex="1">
          <mxGeometry x="605" y="160" width="234" height="102.2" as="geometry" />
        </mxCell>
        <mxCell id="twu74jtmgmy1X8iGH-nL-16" style="line;strokeWidth=1;fillColor=none;align=left;verticalAlign=middle;spacingTop=-1;spacingLeft=3;spacingRight=3;rotatable=0;labelPosition=right;points=[];portConstraint=eastwest;strokeColor=inherit;" parent="twu74jtmgmy1X8iGH-nL-15" vertex="1">
          <mxGeometry y="47.2" width="234" height="8" as="geometry" />
        </mxCell>
        <mxCell id="twu74jtmgmy1X8iGH-nL-17" value="+ TraerUsuario(int) : : BEUsuario_391IAU" style="text;strokeColor=none;fillColor=none;align=left;verticalAlign=top;spacingLeft=4;spacingRight=4;overflow=hidden;rotatable=0;points=[[0,0.5],[1,0.5]];portConstraint=eastwest;" parent="twu74jtmgmy1X8iGH-nL-15" vertex="1">
          <mxGeometry y="55.2" width="234" height="47" as="geometry" />
        </mxCell>
        <mxCell id="twu74jtmgmy1X8iGH-nL-18" value="CriptoManager_391IAU" style="swimlane;fontStyle=1;align=center;verticalAlign=top;childLayout=stackLayout;horizontal=1;startSize=47.2;horizontalStack=0;resizeParent=1;resizeParentMax=0;resizeLast=0;collapsible=0;marginBottom=0;" parent="1" vertex="1">
          <mxGeometry x="610" y="20" width="224" height="102.2" as="geometry" />
        </mxCell>
        <mxCell id="twu74jtmgmy1X8iGH-nL-19" style="line;strokeWidth=1;fillColor=none;align=left;verticalAlign=middle;spacingTop=-1;spacingLeft=3;spacingRight=3;rotatable=0;labelPosition=right;points=[];portConstraint=eastwest;strokeColor=inherit;" parent="twu74jtmgmy1X8iGH-nL-18" vertex="1">
          <mxGeometry y="47.2" width="224" height="8" as="geometry" />
        </mxCell>
        <mxCell id="twu74jtmgmy1X8iGH-nL-20" value="+ Encripta(string) : : BEUsuario_391IAU" style="text;strokeColor=none;fillColor=none;align=left;verticalAlign=top;spacingLeft=4;spacingRight=4;overflow=hidden;rotatable=0;points=[[0,0.5],[1,0.5]];portConstraint=eastwest;" parent="twu74jtmgmy1X8iGH-nL-18" vertex="1">
          <mxGeometry y="55.2" width="224" height="47" as="geometry" />
        </mxCell>
        <mxCell id="twu74jtmgmy1X8iGH-nL-66" style="edgeStyle=orthogonalEdgeStyle;rounded=0;orthogonalLoop=1;jettySize=auto;html=1;endArrow=open;endFill=0;" parent="1" source="twu74jtmgmy1X8iGH-nL-21" target="twu74jtmgmy1X8iGH-nL-1" edge="1">
          <mxGeometry relative="1" as="geometry">
            <Array as="points">
              <mxPoint x="420" y="220" />
            </Array>
          </mxGeometry>
        </mxCell>
        <mxCell id="twu74jtmgmy1X8iGH-nL-21" value="SessionManager_391IAU" style="swimlane;fontStyle=1;align=center;verticalAlign=top;childLayout=stackLayout;horizontal=1;startSize=34.666666666666664;horizontalStack=0;resizeParent=1;resizeParentMax=0;resizeLast=0;collapsible=0;marginBottom=0;" parent="1" vertex="1">
          <mxGeometry x="20" y="20" width="247" height="217.66666666666666" as="geometry" />
        </mxCell>
        <mxCell id="twu74jtmgmy1X8iGH-nL-22" value="- Instancia: bool" style="text;strokeColor=none;fillColor=none;align=left;verticalAlign=top;spacingLeft=4;spacingRight=4;overflow=hidden;rotatable=0;points=[[0,0.5],[1,0.5]];portConstraint=eastwest;" parent="twu74jtmgmy1X8iGH-nL-21" vertex="1">
          <mxGeometry y="34.666666666666664" width="247" height="35" as="geometry" />
        </mxCell>
        <mxCell id="twu74jtmgmy1X8iGH-nL-23" style="line;strokeWidth=1;fillColor=none;align=left;verticalAlign=middle;spacingTop=-1;spacingLeft=3;spacingRight=3;rotatable=0;labelPosition=right;points=[];portConstraint=eastwest;strokeColor=inherit;" parent="twu74jtmgmy1X8iGH-nL-21" vertex="1">
          <mxGeometry y="69.66666666666666" width="247" height="8" as="geometry" />
        </mxCell>
        <mxCell id="twu74jtmgmy1X8iGH-nL-24" value="+ CerrarSesion(BEUsuario_391IAU) : : void" style="text;strokeColor=none;fillColor=none;align=left;verticalAlign=top;spacingLeft=4;spacingRight=4;overflow=hidden;rotatable=0;points=[[0,0.5],[1,0.5]];portConstraint=eastwest;" parent="twu74jtmgmy1X8iGH-nL-21" vertex="1">
          <mxGeometry y="77.66666666666666" width="247" height="35" as="geometry" />
        </mxCell>
        <mxCell id="twu74jtmgmy1X8iGH-nL-25" value="+ EliminarSesion() : : void" style="text;strokeColor=none;fillColor=none;align=left;verticalAlign=top;spacingLeft=4;spacingRight=4;overflow=hidden;rotatable=0;points=[[0,0.5],[1,0.5]];portConstraint=eastwest;" parent="twu74jtmgmy1X8iGH-nL-21" vertex="1">
          <mxGeometry y="112.66666666666666" width="247" height="35" as="geometry" />
        </mxCell>
        <mxCell id="twu74jtmgmy1X8iGH-nL-26" value="+ GetSesion(BEUsuario_391IAU) : : void" style="text;strokeColor=none;fillColor=none;align=left;verticalAlign=top;spacingLeft=4;spacingRight=4;overflow=hidden;rotatable=0;points=[[0,0.5],[1,0.5]];portConstraint=eastwest;" parent="twu74jtmgmy1X8iGH-nL-21" vertex="1">
          <mxGeometry y="147.66666666666666" width="247" height="35" as="geometry" />
        </mxCell>
        <mxCell id="twu74jtmgmy1X8iGH-nL-27" value="+ HaySesionActiva() : : bool" style="text;strokeColor=none;fillColor=none;align=left;verticalAlign=top;spacingLeft=4;spacingRight=4;overflow=hidden;rotatable=0;points=[[0,0.5],[1,0.5]];portConstraint=eastwest;" parent="twu74jtmgmy1X8iGH-nL-21" vertex="1">
          <mxGeometry y="182.66666666666666" width="247" height="35" as="geometry" />
        </mxCell>
        <mxCell id="twu74jtmgmy1X8iGH-nL-72" style="edgeStyle=orthogonalEdgeStyle;rounded=0;orthogonalLoop=1;jettySize=auto;html=1;endArrow=block;endFill=0;" parent="1" source="twu74jtmgmy1X8iGH-nL-28" target="twu74jtmgmy1X8iGH-nL-32" edge="1">
          <mxGeometry relative="1" as="geometry" />
        </mxCell>
        <mxCell id="twu74jtmgmy1X8iGH-nL-73" style="edgeStyle=orthogonalEdgeStyle;rounded=0;orthogonalLoop=1;jettySize=auto;html=1;endArrow=diamondThin;endFill=1;" parent="1" source="twu74jtmgmy1X8iGH-nL-28" target="twu74jtmgmy1X8iGH-nL-1" edge="1">
          <mxGeometry relative="1" as="geometry">
            <Array as="points">
              <mxPoint x="438" y="570" />
            </Array>
          </mxGeometry>
        </mxCell>
        <mxCell id="twu74jtmgmy1X8iGH-nL-74" style="edgeStyle=orthogonalEdgeStyle;rounded=0;orthogonalLoop=1;jettySize=auto;html=1;endArrow=diamondThin;endFill=1;" parent="1" source="twu74jtmgmy1X8iGH-nL-28" target="twu74jtmgmy1X8iGH-nL-38" edge="1">
          <mxGeometry relative="1" as="geometry">
            <Array as="points">
              <mxPoint x="280" y="600" />
              <mxPoint x="280" y="600" />
            </Array>
          </mxGeometry>
        </mxCell>
        <mxCell id="twu74jtmgmy1X8iGH-nL-75" style="edgeStyle=orthogonalEdgeStyle;rounded=0;orthogonalLoop=1;jettySize=auto;html=1;endArrow=block;endFill=0;" parent="1" source="twu74jtmgmy1X8iGH-nL-28" target="twu74jtmgmy1X8iGH-nL-38" edge="1">
          <mxGeometry relative="1" as="geometry">
            <Array as="points">
              <mxPoint x="250" y="640" />
              <mxPoint x="250" y="640" />
            </Array>
          </mxGeometry>
        </mxCell>
        <mxCell id="twu74jtmgmy1X8iGH-nL-78" style="edgeStyle=orthogonalEdgeStyle;rounded=0;orthogonalLoop=1;jettySize=auto;html=1;endArrow=diamondThin;endFill=1;" parent="1" source="twu74jtmgmy1X8iGH-nL-28" target="twu74jtmgmy1X8iGH-nL-46" edge="1">
          <mxGeometry relative="1" as="geometry">
            <Array as="points">
              <mxPoint x="144" y="850" />
              <mxPoint x="697" y="850" />
            </Array>
          </mxGeometry>
        </mxCell>
        <mxCell id="twu74jtmgmy1X8iGH-nL-28" value="PermisoComponent_391IAU" style="swimlane;fontStyle=1;align=center;verticalAlign=top;childLayout=stackLayout;horizontal=1;startSize=40.57142857142857;horizontalStack=0;resizeParent=1;resizeParentMax=0;resizeLast=0;collapsible=0;marginBottom=0;" parent="1" vertex="1">
          <mxGeometry x="57.5" y="550.47" width="172" height="130.57142857142856" as="geometry" />
        </mxCell>
        <mxCell id="twu74jtmgmy1X8iGH-nL-29" style="line;strokeWidth=1;fillColor=none;align=left;verticalAlign=middle;spacingTop=-1;spacingLeft=3;spacingRight=3;rotatable=0;labelPosition=right;points=[];portConstraint=eastwest;strokeColor=inherit;" parent="twu74jtmgmy1X8iGH-nL-28" vertex="1">
          <mxGeometry y="40.57142857142857" width="172" height="8" as="geometry" />
        </mxCell>
        <mxCell id="twu74jtmgmy1X8iGH-nL-30" value="+ GetHijos(list) : : void" style="text;strokeColor=none;fillColor=none;align=left;verticalAlign=top;spacingLeft=4;spacingRight=4;overflow=hidden;rotatable=0;points=[[0,0.5],[1,0.5]];portConstraint=eastwest;" parent="twu74jtmgmy1X8iGH-nL-28" vertex="1">
          <mxGeometry y="48.57142857142857" width="172" height="41" as="geometry" />
        </mxCell>
        <mxCell id="twu74jtmgmy1X8iGH-nL-31" value="+ GetNombre(string) : : void" style="text;strokeColor=none;fillColor=none;align=left;verticalAlign=top;spacingLeft=4;spacingRight=4;overflow=hidden;rotatable=0;points=[[0,0.5],[1,0.5]];portConstraint=eastwest;" parent="twu74jtmgmy1X8iGH-nL-28" vertex="1">
          <mxGeometry y="89.57142857142857" width="172" height="41" as="geometry" />
        </mxCell>
        <mxCell id="twu74jtmgmy1X8iGH-nL-32" value="PermisoSimple_391IAU" style="swimlane;fontStyle=1;align=center;verticalAlign=top;childLayout=stackLayout;horizontal=1;startSize=36.8;horizontalStack=0;resizeParent=1;resizeParentMax=0;resizeLast=0;collapsible=0;marginBottom=0;" parent="1" vertex="1">
          <mxGeometry x="53.5" y="290" width="180" height="192.8" as="geometry" />
        </mxCell>
        <mxCell id="twu74jtmgmy1X8iGH-nL-33" value="- Nombre: string" style="text;strokeColor=none;fillColor=none;align=left;verticalAlign=top;spacingLeft=4;spacingRight=4;overflow=hidden;rotatable=0;points=[[0,0.5],[1,0.5]];portConstraint=eastwest;" parent="twu74jtmgmy1X8iGH-nL-32" vertex="1">
          <mxGeometry y="36.8" width="180" height="37" as="geometry" />
        </mxCell>
        <mxCell id="twu74jtmgmy1X8iGH-nL-34" style="line;strokeWidth=1;fillColor=none;align=left;verticalAlign=middle;spacingTop=-1;spacingLeft=3;spacingRight=3;rotatable=0;labelPosition=right;points=[];portConstraint=eastwest;strokeColor=inherit;" parent="twu74jtmgmy1X8iGH-nL-32" vertex="1">
          <mxGeometry y="73.8" width="180" height="8" as="geometry" />
        </mxCell>
        <mxCell id="twu74jtmgmy1X8iGH-nL-35" value="+ GetHijos(list) : : void" style="text;strokeColor=none;fillColor=none;align=left;verticalAlign=top;spacingLeft=4;spacingRight=4;overflow=hidden;rotatable=0;points=[[0,0.5],[1,0.5]];portConstraint=eastwest;" parent="twu74jtmgmy1X8iGH-nL-32" vertex="1">
          <mxGeometry y="81.8" width="180" height="37" as="geometry" />
        </mxCell>
        <mxCell id="twu74jtmgmy1X8iGH-nL-36" value="+ GetNombre(string) : : void" style="text;strokeColor=none;fillColor=none;align=left;verticalAlign=top;spacingLeft=4;spacingRight=4;overflow=hidden;rotatable=0;points=[[0,0.5],[1,0.5]];portConstraint=eastwest;" parent="twu74jtmgmy1X8iGH-nL-32" vertex="1">
          <mxGeometry y="118.8" width="180" height="37" as="geometry" />
        </mxCell>
        <mxCell id="twu74jtmgmy1X8iGH-nL-37" value="+ PermisoSimple(string) : : void" style="text;strokeColor=none;fillColor=none;align=left;verticalAlign=top;spacingLeft=4;spacingRight=4;overflow=hidden;rotatable=0;points=[[0,0.5],[1,0.5]];portConstraint=eastwest;" parent="twu74jtmgmy1X8iGH-nL-32" vertex="1">
          <mxGeometry y="155.8" width="180" height="37" as="geometry" />
        </mxCell>
        <mxCell id="twu74jtmgmy1X8iGH-nL-38" value="PermisoCompuesto_391IAU" style="swimlane;fontStyle=1;align=center;verticalAlign=top;childLayout=stackLayout;horizontal=1;startSize=33.142857142857146;horizontalStack=0;resizeParent=1;resizeParentMax=0;resizeLast=0;collapsible=0;marginBottom=0;" parent="1" vertex="1">
          <mxGeometry x="310.5" y="590" width="255" height="239.14285714285714" as="geometry" />
        </mxCell>
        <mxCell id="twu74jtmgmy1X8iGH-nL-39" value="- Hijos: list" style="text;strokeColor=none;fillColor=none;align=left;verticalAlign=top;spacingLeft=4;spacingRight=4;overflow=hidden;rotatable=0;points=[[0,0.5],[1,0.5]];portConstraint=eastwest;" parent="twu74jtmgmy1X8iGH-nL-38" vertex="1">
          <mxGeometry y="33.142857142857146" width="255" height="33" as="geometry" />
        </mxCell>
        <mxCell id="twu74jtmgmy1X8iGH-nL-40" value="- Nombre: string" style="text;strokeColor=none;fillColor=none;align=left;verticalAlign=top;spacingLeft=4;spacingRight=4;overflow=hidden;rotatable=0;points=[[0,0.5],[1,0.5]];portConstraint=eastwest;" parent="twu74jtmgmy1X8iGH-nL-38" vertex="1">
          <mxGeometry y="66.14285714285714" width="255" height="33" as="geometry" />
        </mxCell>
        <mxCell id="twu74jtmgmy1X8iGH-nL-41" style="line;strokeWidth=1;fillColor=none;align=left;verticalAlign=middle;spacingTop=-1;spacingLeft=3;spacingRight=3;rotatable=0;labelPosition=right;points=[];portConstraint=eastwest;strokeColor=inherit;" parent="twu74jtmgmy1X8iGH-nL-38" vertex="1">
          <mxGeometry y="99.14285714285714" width="255" height="8" as="geometry" />
        </mxCell>
        <mxCell id="twu74jtmgmy1X8iGH-nL-42" value="+ Add(PermisoComponent_391IAU) : : void" style="text;strokeColor=none;fillColor=none;align=left;verticalAlign=top;spacingLeft=4;spacingRight=4;overflow=hidden;rotatable=0;points=[[0,0.5],[1,0.5]];portConstraint=eastwest;" parent="twu74jtmgmy1X8iGH-nL-38" vertex="1">
          <mxGeometry y="107.14285714285714" width="255" height="33" as="geometry" />
        </mxCell>
        <mxCell id="twu74jtmgmy1X8iGH-nL-43" value="+ GetHijos(list) : : void" style="text;strokeColor=none;fillColor=none;align=left;verticalAlign=top;spacingLeft=4;spacingRight=4;overflow=hidden;rotatable=0;points=[[0,0.5],[1,0.5]];portConstraint=eastwest;" parent="twu74jtmgmy1X8iGH-nL-38" vertex="1">
          <mxGeometry y="140.14285714285714" width="255" height="33" as="geometry" />
        </mxCell>
        <mxCell id="twu74jtmgmy1X8iGH-nL-44" value="+ GetNombre(string) : : void" style="text;strokeColor=none;fillColor=none;align=left;verticalAlign=top;spacingLeft=4;spacingRight=4;overflow=hidden;rotatable=0;points=[[0,0.5],[1,0.5]];portConstraint=eastwest;" parent="twu74jtmgmy1X8iGH-nL-38" vertex="1">
          <mxGeometry y="173.14285714285714" width="255" height="33" as="geometry" />
        </mxCell>
        <mxCell id="twu74jtmgmy1X8iGH-nL-45" value="+ PermisoCompuesto_391IAU(string) : : void" style="text;strokeColor=none;fillColor=none;align=left;verticalAlign=top;spacingLeft=4;spacingRight=4;overflow=hidden;rotatable=0;points=[[0,0.5],[1,0.5]];portConstraint=eastwest;" parent="twu74jtmgmy1X8iGH-nL-38" vertex="1">
          <mxGeometry y="206.14285714285714" width="255" height="33" as="geometry" />
        </mxCell>
        <mxCell id="twu74jtmgmy1X8iGH-nL-46" value="BERol_391IAU" style="swimlane;fontStyle=1;align=center;verticalAlign=top;childLayout=stackLayout;horizontal=1;startSize=38.857142857142854;horizontalStack=0;resizeParent=1;resizeParentMax=0;resizeLast=0;collapsible=0;marginBottom=0;" parent="1" vertex="1">
          <mxGeometry x="645" y="641.64" width="104" height="135.85714285714286" as="geometry" />
        </mxCell>
        <mxCell id="twu74jtmgmy1X8iGH-nL-47" value="- Nombre: string" style="text;strokeColor=none;fillColor=none;align=left;verticalAlign=top;spacingLeft=4;spacingRight=4;overflow=hidden;rotatable=0;points=[[0,0.5],[1,0.5]];portConstraint=eastwest;" parent="twu74jtmgmy1X8iGH-nL-46" vertex="1">
          <mxGeometry y="38.857142857142854" width="104" height="39" as="geometry" />
        </mxCell>
        <mxCell id="twu74jtmgmy1X8iGH-nL-48" value="- Permisos: list" style="text;strokeColor=none;fillColor=none;align=left;verticalAlign=top;spacingLeft=4;spacingRight=4;overflow=hidden;rotatable=0;points=[[0,0.5],[1,0.5]];portConstraint=eastwest;" parent="twu74jtmgmy1X8iGH-nL-46" vertex="1">
          <mxGeometry y="77.85714285714286" width="104" height="39" as="geometry" />
        </mxCell>
        <mxCell id="twu74jtmgmy1X8iGH-nL-49" style="line;strokeWidth=1;fillColor=none;align=left;verticalAlign=middle;spacingTop=-1;spacingLeft=3;spacingRight=3;rotatable=0;labelPosition=right;points=[];portConstraint=eastwest;strokeColor=inherit;" parent="twu74jtmgmy1X8iGH-nL-46" vertex="1">
          <mxGeometry y="116.85714285714286" width="104" height="19" as="geometry" />
        </mxCell>
        <mxCell id="twu74jtmgmy1X8iGH-nL-65" style="edgeStyle=orthogonalEdgeStyle;rounded=0;orthogonalLoop=1;jettySize=auto;html=1;endArrow=open;endFill=0;dashed=1;" parent="1" source="twu74jtmgmy1X8iGH-nL-50" target="twu74jtmgmy1X8iGH-nL-46" edge="1">
          <mxGeometry relative="1" as="geometry">
            <Array as="points">
              <mxPoint x="720" y="640" />
              <mxPoint x="720" y="640" />
            </Array>
          </mxGeometry>
        </mxCell>
        <mxCell id="twu74jtmgmy1X8iGH-nL-50" value="BLLRol_391IAU" style="swimlane;fontStyle=1;align=center;verticalAlign=top;childLayout=stackLayout;horizontal=1;startSize=47.2;horizontalStack=0;resizeParent=1;resizeParentMax=0;resizeLast=0;collapsible=0;marginBottom=0;" parent="1" vertex="1">
          <mxGeometry x="520" y="310" width="274" height="102.2" as="geometry" />
        </mxCell>
        <mxCell id="twu74jtmgmy1X8iGH-nL-51" style="line;strokeWidth=1;fillColor=none;align=left;verticalAlign=middle;spacingTop=-1;spacingLeft=3;spacingRight=3;rotatable=0;labelPosition=right;points=[];portConstraint=eastwest;strokeColor=inherit;" parent="twu74jtmgmy1X8iGH-nL-50" vertex="1">
          <mxGeometry y="47.2" width="274" height="8" as="geometry" />
        </mxCell>
        <mxCell id="twu74jtmgmy1X8iGH-nL-52" value="+ ObtenerPermisosPorRol(BERol_391IAU) : : list" style="text;strokeColor=none;fillColor=none;align=left;verticalAlign=top;spacingLeft=4;spacingRight=4;overflow=hidden;rotatable=0;points=[[0,0.5],[1,0.5]];portConstraint=eastwest;" parent="twu74jtmgmy1X8iGH-nL-50" vertex="1">
          <mxGeometry y="55.2" width="274" height="47" as="geometry" />
        </mxCell>
      </root>
    </mxGraphModel>
  </diagram>
</mxfile>
